<mxfile host="65bd71144e" modified="2020-12-28T17:44:00.783Z" agent="5.0 (X11; Linux x86_64) AppleWebKit/537.36 (KHTML, like Gecko) Code/1.52.1 Chrome/83.0.4103.122 Electron/9.3.5 Safari/537.36" etag="gpt6HzXRXook_HKL9_kP" version="13.10.0" type="embed">
    <diagram id="DrZXiVs0aSQVqa0aRuP6" name="software">
        <mxGraphModel dx="798" dy="612" grid="1" gridSize="10" guides="1" tooltips="1" connect="1" arrows="1" fold="1" page="1" pageScale="1" pageWidth="850" pageHeight="1100" math="0" shadow="0" extFonts="Rubik^https://fonts.googleapis.com/css?family=Rubik|Roboto^https://fonts.googleapis.com/css?family=Roboto">
            <root>
                <mxCell id="RKsdGQdphBBXt08AxXi1-0"/>
                <mxCell id="RKsdGQdphBBXt08AxXi1-1" parent="RKsdGQdphBBXt08AxXi1-0"/>
                <mxCell id="P9GwloWI6S9LXT880i7l-4" style="edgeStyle=orthogonalEdgeStyle;orthogonalLoop=1;jettySize=auto;html=1;entryX=1;entryY=0.5;entryDx=0;entryDy=0;endArrow=blockThin;endFill=1;strokeWidth=1;fontFamily=Helvetica;fontSize=13;fillColor=#dae8fc;startArrow=none;startFill=0;exitX=0;exitY=0.5;exitDx=0;exitDy=0;rounded=0;fontColor=#000000;strokeColor=#000000;" parent="RKsdGQdphBBXt08AxXi1-1" source="9c7RmDfzx6HJ3sPSUytA-1" target="9c7RmDfzx6HJ3sPSUytA-36" edge="1">
                    <mxGeometry relative="1" as="geometry"/>
                </mxCell>
                <mxCell id="9c7RmDfzx6HJ3sPSUytA-1" value="&lt;div style=&quot;font-size: 14px&quot;&gt;Raspberry Pi 4&lt;/div&gt;&lt;div style=&quot;font-size: 12px&quot;&gt;&lt;font&gt;&lt;b&gt;&lt;font style=&quot;line-height: 160% ; font-size: 12px&quot;&gt;IP: 192.168.1.200&lt;/font&gt;&lt;/b&gt;&lt;/font&gt;&lt;/div&gt;&lt;div&gt;&lt;font&gt;&lt;font style=&quot;line-height: 160%&quot;&gt;&lt;span style=&quot;font-size: 12px ; line-height: 120%&quot;&gt;(ROS Slave)&lt;/span&gt;&lt;br&gt;&lt;/font&gt;&lt;/font&gt;&lt;/div&gt;" style="rounded=0;whiteSpace=wrap;html=1;shadow=0;glass=0;comic=0;strokeColor=#000000;strokeWidth=1;fillColor=#ffffff;gradientColor=none;fontFamily=Helvetica;FType=g;fontSize=13;fontColor=#000000;" parent="RKsdGQdphBBXt08AxXi1-1" vertex="1">
                    <mxGeometry x="550" y="160" width="160" height="70" as="geometry"/>
                </mxCell>
                <mxCell id="9c7RmDfzx6HJ3sPSUytA-36" value="&lt;div&gt;&lt;font style=&quot;font-size: 14px&quot;&gt;Host Machine&lt;br&gt;&lt;/font&gt;&lt;/div&gt;&lt;div style=&quot;font-size: 12px&quot;&gt;&lt;font&gt;&lt;b style=&quot;line-height: 160%&quot;&gt;IP: 192.168.1.100&lt;/b&gt;&lt;/font&gt;&lt;/div&gt;&lt;div&gt;&lt;font&gt;&lt;span style=&quot;font-size: 12px&quot;&gt;(ROS Master)&lt;/span&gt;&lt;br&gt;&lt;/font&gt;&lt;/div&gt;" style="rounded=0;whiteSpace=wrap;html=1;shadow=0;glass=0;comic=0;strokeColor=#000000;strokeWidth=1;fillColor=#ffffff;gradientColor=none;fontFamily=Helvetica;fontSize=13;FType=g;fontColor=#000000;" parent="RKsdGQdphBBXt08AxXi1-1" vertex="1">
                    <mxGeometry x="290" y="160" width="160" height="70" as="geometry"/>
                </mxCell>
            </root>
        </mxGraphModel>
    </diagram>
</mxfile>